<?xml version="1.0" encoding="UTF-8" standalone="no"?>
<!-- Creator: CorelDRAW -->

<svg
   xmlns:dc="http://purl.org/dc/elements/1.1/"
   xmlns:cc="http://creativecommons.org/ns#"
   xmlns:rdf="http://www.w3.org/1999/02/22-rdf-syntax-ns#"
   xmlns:svg="http://www.w3.org/2000/svg"
   xmlns="http://www.w3.org/2000/svg"
   xmlns:sodipodi="http://sodipodi.sourceforge.net/DTD/sodipodi-0.dtd"
   xmlns:inkscape="http://www.inkscape.org/namespaces/inkscape"
   xml:space="preserve"
   width="181.34204"
   height="181.34204"
   style="clip-rule:evenodd;fill-rule:evenodd;image-rendering:optimizeQuality;shape-rendering:geometricPrecision;text-rendering:geometricPrecision"
   viewBox="0 0 35.609308 35.609455"
   version="1.1"
   enable-background="new 0 0 600 600"
   id="svg47"
   sodipodi:docname="favicon.svg"
   inkscape:version="0.92.4 (5da689c313, 2019-01-14)"
   inkscape:export-filename="/home/apophis/jan/zver/zverinec-web/img/favicon.png"
   inkscape:export-xdpi="33.880726"
   inkscape:export-ydpi="33.880726"><metadata
     id="metadata51"><rdf:RDF><cc:Work
         rdf:about=""><dc:format>image/svg+xml</dc:format><dc:type
           rdf:resource="http://purl.org/dc/dcmitype/StillImage" /><dc:title /></cc:Work></rdf:RDF></metadata><sodipodi:namedview
     pagecolor="#ffffff"
     bordercolor="#666666"
     borderopacity="1"
     objecttolerance="10"
     gridtolerance="10"
     guidetolerance="10"
     inkscape:pageopacity="0"
     inkscape:pageshadow="2"
     inkscape:window-width="1920"
     inkscape:window-height="1182"
     id="namedview49"
     showgrid="false"
     units="px"
     inkscape:zoom="5.0426334"
     inkscape:cx="71.651974"
     inkscape:cy="82.969285"
     inkscape:window-x="0"
     inkscape:window-y="0"
     inkscape:window-maximized="1"
     inkscape:current-layer="svg47"
     fit-margin-top="0"
     fit-margin-left="0"
     fit-margin-right="0"
     fit-margin-bottom="0" /><defs
     id="defs4"><inkscape:path-effect
       effect="spiro"
       id="path-effect840"
       is_visible="true" /><style
       type="text/css"
       id="style2"><![CDATA[
    .str0 {stroke:black;stroke-width:0.196378}
    .fil1 {fill:black}
    .fil0 {fill:black}
    .fil3 {fill:white}
    .fil2 {fill:black;fill-rule:nonzero}
   ]]></style><clipPath
       clipPathUnits="userSpaceOnUse"
       id="clipPath872"><path
         style="fill:#008000;fill-opacity:1;stroke:none;stroke-width:0.19636624px;stroke-linecap:butt;stroke-linejoin:miter;stroke-opacity:1"
         d="M 6.0577569,35.003673 C 5.8178766,33.056034 6.0254298,31.07065 6.4983263,29.166126 6.9684868,27.272621 7.6984385,25.448925 8.5910314,23.714079 8.8472628,23.216067 9.1174968,22.723871 9.3279113,22.204837 9.5383259,21.685804 9.6886587,21.135071 9.6924551,20.575021 9.6979757,19.760607 9.396946,18.980376 9.1417433,18.20696 8.6009705,16.568098 8.2496843,14.863333 8.1504619,13.140411 8.0755197,11.839096 8.1455145,10.522764 8.4526816,9.2560019 8.7598487,7.9892403 9.3098554,6.7715299 10.133025,5.7608724 c 0.989128,-1.2144149 2.354921,-2.101132 3.840092,-2.5985708 1.485171,-0.4974388 3.085436,-0.614201 4.64087,-0.4303443 2.345767,0.2772763 4.643159,1.2690207 6.278115,2.973844 1.876769,1.9569697 2.767701,4.8078377 2.368061,7.4896807 -0.258314,1.733451 -1.01755,3.374546 -1.156495,5.121621 -0.151671,1.907086 0.444588,3.783929 0.991281,5.617261 0.872626,2.926345 1.638168,5.89409 2.037635,8.921531 0.0892,0.676025 0.160143,1.355768 0.165213,2.037634 0.02183,2.935868 -1.237018,5.849677 -3.3551,7.882786 -2.118082,2.033108 -5.059298,3.168856 -7.995083,3.137787 -2.935786,-0.03107 -5.835315,-1.21677 -7.9868971,-3.214391 -2.1515824,-1.997622 -3.5440667,-4.782107 -3.90296,-7.696038 z"
         id="path874"
         inkscape:connector-curvature="0"
         inkscape:path-effect="#path-effect840"
         inkscape:original-d="M 6.0577569,35.003673 C -1.6891195,35.040582 6.3516663,31.111778 6.4983263,29.166126 6.6449866,27.220475 7.8936595,25.531232 8.5910314,23.714079 9.2884033,21.896925 9.3255102,21.621178 9.6924551,20.575021 10.0594,19.528865 9.3255102,18.996118 9.1417433,18.20696 8.9579763,17.417803 8.4810853,14.829065 8.1504619,13.140411 7.8198385,11.451758 9.4723667,8.2205223 10.133025,5.7608724 c 0.660657,-2.45965 5.654171,-2.0194732 8.480962,-3.0289151 2.82679,-1.0094421 4.185607,1.9823663 6.278115,2.973844 2.092509,0.9914777 1.578905,4.9929247 2.368061,7.4896807 0.789157,2.496757 -0.7708,3.414217 -1.156495,5.121621 -0.385694,1.707403 0.661052,3.744644 0.991281,5.617261 0.330231,1.872615 1.35862,5.947492 2.037635,8.921531 0.679015,2.974042 0.110338,1.358226 0.165213,2.037634 0.05487,0.679407 -15.493164,0.07323 -23.2400401,0.110144 z"
         transform="scale(0.99999999,-0.99999999)" /></clipPath></defs><rect
     style="opacity:1;fill:#fffeff;fill-opacity:1;stroke:none;stroke-width:0.34213299;stroke-linecap:round;stroke-linejoin:miter;stroke-miterlimit:4;stroke-dasharray:none;stroke-dashoffset:0;stroke-opacity:1"
     id="rect842"
     width="35.748028"
     height="36.059559"
     x="3.465694"
     y="-35.064278"
     transform="scale(1,-1)"
     clip-path="url(#clipPath872)" /><g
     id="g14"
     transform="matrix(1.3458127,0,0,1.3458127,-45.717793,-4.1892764)"
     style="stroke:none;stroke-opacity:1"><path
       id="_221801232"
       class="fil0"
       d="m 47.5895,16.6069 c -0.215081,0.293454 -0.566869,0.293602 -0.782024,0 L 45.95413,15.44288 c -0.214932,-0.293454 -0.09322,-0.533397 0.270447,-0.533397 h 1.94782 c 0.363886,0 0.485379,0.240166 0.270372,0.533397 l -0.853272,1.16402 z"
       inkscape:connector-curvature="0"
       style="fill:#000000;stroke:none;stroke-opacity:1" /><path
       id="_221800896"
       class="fil0"
       d="m 50.7884,12.05 c 0,-0.408935 -0.331601,-0.740611 -0.740537,-0.740611 -0.40901,0 -0.740611,0.331676 -0.740611,0.740611 0,0.408935 0.331601,0.740611 0.740611,0.740611 0.408935,0 0.740537,-0.331676 0.740537,-0.740611 z"
       inkscape:connector-curvature="0"
       style="fill:#000000;stroke:none;stroke-opacity:1" /><path
       id="_221801256"
       class="fil0"
       d="m 45.1498,12.0501 c 0,-0.408935 -0.331527,-0.740462 -0.740462,-0.740462 -0.408861,0 -0.740314,0.331527 -0.740314,0.740462 0,0.408787 0.331453,0.740462 0.740314,0.740462 0.408935,0 0.740462,-0.331676 0.740462,-0.740462 z"
       inkscape:connector-curvature="0"
       style="fill:#000000;stroke:none;stroke-opacity:1" /><path
       id="_221800656"
       class="fil0"
       d="m 53.8713,10.5917 c -0.586833,0.215897 -1.17359,0.43172 -1.7602,0.647543 -0.238014,-0.780985 -1.03971,-1.30859 -1.85409,-1.35238 -0.804437,-0.043268 -1.44144,0.484117 -1.74031,1.16662 -0.335238,-0.289223 -0.79286,-0.370268 -1.25783,-0.37821 -0.01061,0 -0.01996,0.0017 -0.02998,0.0025 -0.01017,-8.16e-4 -0.01922,-0.0025 -0.03006,-0.0025 -0.463336,0.0079 -0.919399,0.08832 -1.25441,0.375167 -0.295087,-0.675152 -0.9312,-1.11979 -1.74365,-1.16357 -0.881326,-0.047499 -1.56279,0.589876 -1.81728,1.36596 -0.599079,-0.22035 -1.19808,-0.440774 -1.79701,-0.661125 -0.300727,-0.110657 -0.429493,0.368636 -0.131808,0.478328 0.609915,0.224358 1.21983,0.448716 1.82967,0.67337 -0.0018,0.02197 -0.0051,0.04371 -0.0064,0.0659 -0.05826,1.08602 0.922665,1.86886 1.92281,1.92266 1.05915,0.05707 1.82774,-0.874795 1.91524,-1.84867 0.0055,-0.02249 0.0088,-0.04676 0.0073,-0.074 0.0015,-0.02672 -0.0018,-0.05039 -0.007,-0.07288 -0.0032,-0.03763 -0.0091,-0.07422 -0.01395,-0.111177 0.232744,-0.396318 0.674038,-0.446786 1.09656,-0.453911 0.01076,-2.22e-4 0.02004,-0.0021 0.03006,-0.0036 0.01002,0.0016 0.0193,0.0034 0.02998,0.0036 0.421181,0.0071 0.860991,0.05707 1.09425,0.4502 -0.0052,0.0377 -0.0079,0.07578 -0.01121,0.113775 -0.0055,0.02256 -0.0088,0.04668 -0.0073,0.07392 -0.0017,0.02679 0.0017,0.05039 0.0069,0.07273 0.08891,1.04965 0.852159,1.79264 1.91547,1.84986 1.08602,0.05856 1.86893,-0.922442 1.92222,-1.92259 0.0016,-0.02308 -4.46e-4,-0.04549 -7.5e-5,-0.06835 0.607763,-0.223616 1.2159,-0.44738 1.82388,-0.670921 0.297461,-0.109544 0.169066,-0.588911 -0.131809,-0.478254 z m -11.0977,1.2176 c -0.04327,-0.807035 0.683019,-1.38645 1.42675,-1.42645 0.806961,-0.04334 1.38645,0.682944 1.42652,1.42645 -0.099,1.83858 -2.75426,1.83858 -2.85327,0 z m 7.48315,1.42652 c -0.807035,0.04356 -1.38637,-0.682796 -1.4266,-1.42652 0.099,-1.8385 2.75404,-1.83865 2.85297,0 0.04364,0.806961 -0.682499,1.38637 -1.42638,1.42652 z"
       inkscape:connector-curvature="0"
       style="fill:#000000;stroke:none;stroke-opacity:1" /><path
       id="_221798616"
       class="fil0"
       d="m 59.4634,24.8566 c -0.840358,-1.25998 -4.59922,-4.05833 -5.14494,-4.89216 -0.54594,-0.833679 -0.481816,-1.15318 -0.486715,-1.64606 0.038,-2.05158 1.30006,-4.17181 1.30006,-6.0132 0,-0.955988 -0.04817,-1.90663 -0.357206,-2.80933 -0.858913,-2.51009 -1.98931,-5.96571 -7.53643,-5.97305 -0.01299,0 -0.02568,3.711e-4 -0.03815,5.195e-4 -0.01247,-1.484e-4 -0.02516,-5.195e-4 -0.03807,-5.195e-4 -5.5469,0.0072 -6.67774,3.46289 -7.53673,5.97305 -0.308817,0.902701 -0.356983,1.85349 -0.356983,2.80933 0,1.8414 1.26243,3.96163 1.30013,6.0132 -0.0051,0.493023 0.05915,0.812379 -0.486789,1.64606 -0.545569,0.833827 -4.30458,3.63218 -5.14494,4.89216 -1.27453,1.91094 -1.00067,2.8529 0.422962,2.38748 0.520187,-0.170031 1.93758,-0.583271 1.93758,-0.583271 0,0 0.13552,1.17433 0.250853,2.50148 h 1.82255 c 0.390826,-6.67455 1.88162,-7.13344 2.28603,-10.1541 0,0 0.03013,-1.32351 -0.05997,-2.01551 -0.05715,-0.438919 -0.887486,-2.43662 -0.752189,-4.90336 0.135446,-2.46682 1.06791,-3.8958 2.5872,-4.81312 1.37376,-0.829523 3.36173,-0.847632 3.73007,-0.843476 v 5.937e-4 c 0.0097,2.227e-4 0.0164,4.453e-4 0.0164,4.453e-4 0,0 0.0079,-2.226e-4 0.02041,-5.937e-4 0.01492,3.711e-4 0.02353,5.937e-4 0.02353,5.937e-4 0,0 0.0064,-2.226e-4 0.01633,-4.453e-4 V 6.432723 c 0.368264,-0.00416 2.35617,0.013804 3.73014,0.843476 1.51892,0.917396 2.45153,2.34629 2.58676,4.81304 0.13552,2.46667 -0.694522,4.46437 -0.751892,4.90336 -0.09025,0.692073 -0.06041,2.01566 -0.06041,2.01566 0.404631,3.02056 1.89535,3.47944 2.2864,10.154 h 1.82314 c 0.115259,-1.32715 0.250779,-2.50148 0.250779,-2.50148 0,0 1.41717,0.413388 1.93751,0.583271 1.42333,0.46534 1.69719,-0.476547 0.422591,-2.38748 z"
       inkscape:connector-curvature="0"
       style="fill:#000000;stroke:none;stroke-opacity:1" /></g></svg>