<?xml version="1.0" encoding="UTF-8" standalone="no"?>
<svg
   xmlns:dc="http://purl.org/dc/elements/1.1/"
   xmlns:cc="http://creativecommons.org/ns#"
   xmlns:rdf="http://www.w3.org/1999/02/22-rdf-syntax-ns#"
   xmlns:svg="http://www.w3.org/2000/svg"
   xmlns="http://www.w3.org/2000/svg"
   xmlns:sodipodi="http://sodipodi.sourceforge.net/DTD/sodipodi-0.dtd"
   xmlns:inkscape="http://www.inkscape.org/namespaces/inkscape"
   width="154.80505mm"
   height="167.66711mm"
   viewBox="0 0 154.80505 167.66711"
   version="1.1"
   id="svg5"
   inkscape:version="1.0.2 (e86c870879, 2021-01-15)"
   sodipodi:docname="winterlis_logo_curves.svg">
  <metadata
     id="metadata23">
    <rdf:RDF>
      <cc:Work
         rdf:about="">
        <dc:format>image/svg+xml</dc:format>
        <dc:type
           rdf:resource="http://purl.org/dc/dcmitype/StillImage" />
        <dc:title></dc:title>
      </cc:Work>
    </rdf:RDF>
  </metadata>
  <sodipodi:namedview
     id="namedview7"
     pagecolor="#505050"
     bordercolor="#eeeeee"
     borderopacity="1"
     inkscape:pageshadow="0"
     inkscape:pageopacity="0"
     inkscape:pagecheckerboard="0"
     inkscape:document-units="mm"
     showgrid="false"
     inkscape:zoom="1.1474186"
     inkscape:cx="270.38017"
     inkscape:cy="445.75168"
     inkscape:window-width="1920"
     inkscape:window-height="1182"
     inkscape:window-x="0"
     inkscape:window-y="0"
     inkscape:window-maximized="1"
     inkscape:current-layer="text1583"
     inkscape:document-rotation="0" />
  <defs
     id="defs2">
    <style
       type="text/css"
       id="style9"><![CDATA[
    .fil0 {fill:#336666}
    .fil1 {fill:#A1C9C9}
    .fil2 {fill:#CAE3E3}
    .fil3 {fill:white}
   ]]></style>
    <clipPath
       clipPathUnits="userSpaceOnUse"
       id="clipPath1212">
      <rect
         style="fill:#336666;stroke:#336666;stroke-width:0.264583"
         id="rect1214"
         width="157.64073"
         height="168.57396"
         x="28.610168"
         y="58.45282" />
    </clipPath>
    <clipPath
       clipPathUnits="userSpaceOnUse"
       id="clipPath1216">
      <rect
         style="fill:#336666;stroke:#336666;stroke-width:0.999999"
         id="rect1218"
         width="595.8075"
         height="637.12994"
         x="-0.71760666"
         y="41.914516" />
    </clipPath>
  </defs>
  <g
     inkscape:label="Layer 1"
     inkscape:groupmode="layer"
     id="layer1"
     transform="translate(-29.390056,-58.706683)">
    <g
       id="g1331">
      <g
         style="clip-rule:evenodd;fill-rule:evenodd;image-rendering:optimizeQuality;shape-rendering:geometricPrecision;text-rendering:geometricPrecision"
         id="g39"
         transform="matrix(0.26458333,0,0,0.26458333,28.800035,47.362937)"
         clip-path="url(#clipPath1216)">
        <g
           id="Layer_x0020_1"
           inkscape:label="Layer 1"
           inkscape:groupmode="layer">
          <metadata
             id="CorelCorpID_0Corel-Layer" />
          <g
             id="_1219557984">
            <polygon
               class="fil0"
               points="441.047,549.577 294.775,549.576 148.502,549.577 75.366,422.901 2.23,296.225 75.366,169.55 148.502,42.874 294.775,42.874 441.047,42.874 514.184,169.55 587.32,296.225 514.184,422.901 "
               id="polygon14" />
            <g
               id="g22">
              <polygon
                 class="fil1"
                 points="168.337,336.618 191.727,101.112 2.23,296.225 148.502,549.577 268.026,549.577 "
                 id="polygon16" />
              <polygon
                 class="fil2"
                 points="516.28,324.012 441.047,549.577 148.502,549.577 371.454,249.744 "
                 id="polygon18" />
              <polygon
                 class="fil3"
                 points="349.153,249.416 367.109,376.931 483.004,423.78 516.28,324.012 360.405,112.403 353.221,153.711 322.062,118.946 326.721,171.712 242.422,232.587 269.017,248.235 "
                 id="polygon20" />
            </g>
          </g>
        </g>
      </g>
      <g
         aria-label="WInterLIS"
         id="text1583"
         clip-path="url(#clipPath1212)"
         style="font-size:31.3972px;line-height:1.25;font-family:sans-serif;stroke-width:0.264583">
        <path
           d="m 63.186764,208.47739 c 1.318682,0.43956 1.978024,1.0361 1.255888,3.20251 l -3.328103,9.19938 c -0.156986,0.47096 -0.251178,0.43956 -0.408164,-0.0314 l -3.767664,-10.0157 c -0.502355,-1.38148 0.627944,-1.94663 1.978024,-2.38619 0.282575,-0.0942 0.470958,-0.25118 0.470958,-0.53375 0,-0.37677 -0.627944,-0.56515 -1.098902,-0.56515 -1.067505,0 -2.229201,0.15698 -3.328103,0.15698 -1.1303,0 -1.255888,-0.15698 -2.480379,-0.15698 -0.470958,0 -1.098902,0.18838 -1.098902,0.56515 0,0.28257 0.188383,0.43956 0.502355,0.53375 1.318682,0.47096 1.726846,1.63265 2.260598,3.07692 l 0.188384,0.56515 -3.171117,8.79122 c -0.156986,0.47096 -0.251178,0.43956 -0.408164,-0.0314 l -3.767664,-10.0157 c -0.502355,-1.38148 0.627944,-1.94663 1.978024,-2.38619 0.282574,-0.0942 0.470958,-0.25118 0.470958,-0.53375 0,-0.37677 -0.627944,-0.56515 -1.098902,-0.56515 -1.067505,0 -2.794351,0.15698 -3.893253,0.15698 -1.130299,0 -1.255888,-0.15698 -2.480379,-0.15698 -0.470958,0 -1.098902,0.18838 -1.098902,0.56515 0,0.28257 0.21978,0.43956 0.502355,0.53375 1.978024,0.65934 2.291996,1.63265 2.825748,3.07692 l 4.772375,12.68447 c 0.470958,1.31869 0.941916,2.16641 1.193093,2.16641 0.408164,0 1.538463,-2.79435 2.072215,-4.27002 l 2.888543,-7.97489 3.799061,10.0785 c 0.470958,1.31869 0.941916,2.16641 1.193093,2.16641 0.408164,0 1.538463,-2.79435 2.072216,-4.27002 l 3.893252,-10.73784 c 0.502356,-1.41288 1.067505,-2.44898 2.511776,-2.91994 0.282575,-0.0942 0.533753,-0.25118 0.533753,-0.53375 0,-0.37677 -0.627944,-0.56515 -1.098902,-0.56515 -0.470958,0 -1.538463,0.15698 -2.009421,0.15698 -0.470958,0 -1.78964,-0.15698 -2.260598,-0.15698 -0.470958,0 -1.098902,0.18838 -1.098902,0.56515 0,0.28257 0.251177,0.47095 0.533752,0.56515 z"
           style="font-style:normal;font-variant:normal;font-weight:normal;font-stretch:normal;font-size:31.3972px;font-family:'EB Garamond';-inkscape-font-specification:'EB Garamond';text-align:center;text-anchor:middle;fill:#336666;fill-opacity:1;stroke-width:0.264583"
           id="path866" />
        <path
           d="m 78.351598,207.34709 c -1.067505,0 -2.35479,0.15698 -3.453692,0.15698 -1.130299,0 -2.260598,-0.15698 -3.485089,-0.15698 -0.470958,0 -1.098902,0.18838 -1.098902,0.56515 0,0.28257 0.21978,0.43956 0.502355,0.53375 1.789641,0.50235 2.574571,0.53375 2.574571,2.32339 v 11.45998 c 0,1.1617 -0.408164,1.78964 -1.475669,2.2606 -0.690738,0.31397 -1.726846,0.47096 -1.726846,0.94191 0,0.31398 0.690739,0.50236 1.036108,0.53376 0.21978,0 2.072215,-0.18839 3.547883,-0.18839 1.507066,0 3.579281,0.18839 3.799062,0.18839 0.345369,-0.0314 1.00471,-0.21978 1.00471,-0.53376 0,-0.47095 -1.036108,-0.62794 -1.726846,-0.94191 -1.067505,-0.47096 -1.475668,-1.0989 -1.475668,-2.2606 v -11.45998 c 0,-1.78964 0.816327,-1.82104 2.605967,-2.32339 0.282575,-0.0942 0.470958,-0.25118 0.470958,-0.53375 0,-0.37677 -0.627944,-0.56515 -1.098902,-0.56515 z"
           style="font-style:normal;font-variant:normal;font-weight:normal;font-stretch:normal;font-size:31.3972px;font-family:'EB Garamond';-inkscape-font-specification:'EB Garamond';text-align:center;text-anchor:middle;fill:#336666;fill-opacity:1;stroke-width:0.264583"
           id="path868" />
        <path
           d="m 94.301339,222.44914 v -5.68289 c 0,-2.292 -1.726846,-4.36421 -3.92465,-4.36421 -1.632655,0 -2.857145,0.37676 -3.893253,1.22449 -0.251178,0.21978 -0.627944,0.65934 -0.627944,0.18838 v -0.78493 c 0,-0.59655 0,-0.87912 -0.376766,-0.87912 -0.313972,0 -2.888543,1.03611 -3.265309,1.22449 -0.408164,0.18838 -0.910519,0.43956 -0.910519,0.78493 0,0.34537 0.313972,0.53375 0.659341,0.65934 0.753533,0.28258 1.287285,1.06751 1.287285,1.60126 v 6.09105 c 0,0.78493 -0.345369,1.75825 -1.193093,2.00943 -0.847725,0.25117 -1.224491,0.50235 -1.224491,0.81632 0,0.31397 0.125589,0.62795 0.941916,0.62795 0.690738,0 2.166407,-0.18839 2.794351,-0.18839 0.502355,0 1.601257,0.18839 2.291995,0.18839 0.816328,0 0.910519,-0.31398 0.910519,-0.62795 0,-0.31397 -0.345369,-0.56515 -1.193093,-0.81632 -0.596547,-0.18839 -0.722136,-1.2245 -0.722136,-2.00943 l 0.0314,-5.02355 c 0,-2.38618 1.255888,-3.45369 3.076926,-3.45369 1.632654,0 2.731556,1.82104 2.731556,3.67347 v 4.80377 c 0,0.78493 -0.156986,1.85244 -0.722135,2.00943 -0.847725,0.25117 -1.224491,0.50235 -1.224491,0.81632 0,0.31397 0.125589,0.62795 0.941916,0.62795 0.690738,0 1.695449,-0.18839 2.323393,-0.18839 0.502355,0 2.072215,0.18839 2.762953,0.18839 0.816327,0 0.847724,-0.31398 0.847724,-0.62795 0,-0.31397 -0.282574,-0.56515 -1.130299,-0.81632 -0.847724,-0.25118 -1.193093,-1.25589 -1.193093,-2.07222 z"
           style="font-style:normal;font-variant:normal;font-weight:normal;font-stretch:normal;font-size:31.3972px;font-family:'EB Garamond';-inkscape-font-specification:'EB Garamond';text-align:center;text-anchor:middle;fill:#336666;fill-opacity:1;stroke-width:0.264583"
           id="path870" />
        <path
           d="m 103.09253,226.15401 c 1.88383,0 3.57928,-1.53846 3.57928,-2.2606 0,-0.31397 -0.15698,-0.43956 -0.47096,-0.43956 -0.31397,0 -1.0989,0.56515 -2.26059,0.56515 -1.09891,0 -1.63266,-0.69074 -1.63266,-2.88854 v -5.87128 c 0,-0.43956 0.12559,-0.59655 0.50236,-0.59655 h 3.10832 c 0.43956,0 0.75353,-0.81632 0.75353,-1.13029 0,-0.31398 -0.12559,-0.72214 -0.62794,-0.72214 h -3.04553 c -0.40816,0 -0.69074,-0.15699 -0.69074,-0.47096 v -0.87912 c 0,-0.53375 -0.0628,-0.78493 -0.43956,-0.78493 -0.40816,0 -1.60126,1.19309 -2.040817,1.56986 -0.78493,0.65934 -2.103612,1.53846 -2.103612,1.97802 0,0.31398 0.722135,0.43956 1.00471,0.43956 1.161696,0 0.973313,0.15699 0.973313,0.43957 v 7.47253 c 0,2.66876 1.538466,3.57928 3.390896,3.57928 z"
           style="font-style:normal;font-variant:normal;font-weight:normal;font-stretch:normal;font-size:31.3972px;font-family:'EB Garamond';-inkscape-font-specification:'EB Garamond';text-align:center;text-anchor:middle;fill:#336666;fill-opacity:1;stroke-width:0.264583"
           id="path872" />
        <path
           d="m 111.34996,216.01271 c 0,-0.62794 1.28729,-2.1664 3.17112,-2.1664 0.91052,0 1.85243,0.62794 1.85243,1.53846 0,0.43956 -0.15698,0.97331 -0.47095,0.97331 h -4.14444 c -0.37676,0 -0.40816,-0.12559 -0.40816,-0.34537 z m 7.75511,-0.34537 c 0,-1.60125 -2.00942,-3.2653 -4.14443,-3.2653 -3.83046,0 -6.7818,2.95133 -6.7818,6.81319 0,3.54788 1.94663,6.93878 5.43172,6.93878 3.07692,0 4.89796,-1.50707 4.89796,-2.41758 0,-0.31398 -0.15698,-0.43957 -0.47096,-0.43957 -0.31397,0 -1.69544,0.72214 -3.2653,0.72214 -2.48038,0 -3.95605,-2.57457 -3.95605,-4.96076 0,-0.53375 0,-0.59654 0.12559,-0.94191 0.0942,-0.25118 0.15698,-0.31398 0.59654,-0.31398 h 6.62481 c 0.81633,0 0.94192,-1.28728 0.94192,-2.13501 z"
           style="font-style:normal;font-variant:normal;font-weight:normal;font-stretch:normal;font-size:31.3972px;font-family:'EB Garamond';-inkscape-font-specification:'EB Garamond';text-align:center;text-anchor:middle;fill:#336666;fill-opacity:1;stroke-width:0.264583"
           id="path874" />
        <path
           d="m 124.09719,225.77724 c 0.50235,0 2.35479,0.18839 3.04553,0.18839 0.81632,0 1.0675,-0.31398 1.0675,-0.62795 0,-0.31397 -0.43956,-0.56515 -1.28728,-0.81632 -0.84773,-0.25118 -1.53847,-1.2245 -1.53847,-2.00943 l 0.0628,-6.12245 c 0,-0.81633 0.91052,-1.47567 1.63265,-1.47567 0.62795,0 1.56986,0.87912 2.04082,0.87912 0.15698,0 0.40816,-0.18838 0.50235,-0.28257 0.50236,-0.50236 0.94192,-1.31868 0.94192,-1.78964 0,-0.72214 -0.50236,-1.31868 -1.78964,-1.31868 -0.94192,0 -2.2606,0.69073 -2.76295,1.22449 -0.15699,0.18838 -0.62795,0.65934 -0.62795,0.18838 v -0.78493 c 0,-0.59655 0,-0.87912 -0.37676,-0.87912 -0.31398,0 -2.91994,1.03611 -3.26531,1.22449 -0.40817,0.18838 -0.91052,0.43956 -0.91052,0.78493 0,0.34537 0.31397,0.53375 0.65934,0.65934 0.75353,0.28258 1.28728,1.06751 1.28728,1.60126 v 6.09105 c 0,0.78493 -0.34536,1.75825 -1.19309,2.00943 -0.84772,0.25117 -1.22449,0.50235 -1.22449,0.81632 0,0.31397 0.12559,0.62795 0.94192,0.62795 0.69073,0 2.1978,-0.18839 2.79435,-0.18839 z"
           style="font-style:normal;font-variant:normal;font-weight:normal;font-stretch:normal;font-size:31.3972px;font-family:'EB Garamond';-inkscape-font-specification:'EB Garamond';text-align:center;text-anchor:middle;fill:#336666;fill-opacity:1;stroke-width:0.264583"
           id="path876" />
        <path
           d="m 137.66072,223.23407 v -12.46469 c 0,-1.78964 0.84772,-1.82104 2.63736,-2.32339 0.28258,-0.0942 0.47096,-0.25118 0.47096,-0.53375 0,-0.37677 -0.62794,-0.56515 -1.0989,-0.56515 -1.06751,0 -2.35479,0.15698 -3.45369,0.15698 -1.1303,0 -2.2606,-0.15698 -3.48509,-0.15698 -0.69074,0 -1.1303,0.18838 -1.1303,0.56515 0,0.28257 0.21978,0.43956 0.50235,0.53375 1.78964,0.50235 2.57457,0.53375 2.57457,2.32339 v 11.45998 c 0,1.1617 -0.40816,1.78964 -1.47567,2.2606 -0.69073,0.31397 -1.72684,0.47096 -1.72684,0.94191 0,0.31398 0.69074,0.50236 1.03611,0.53376 0.21978,0 2.07221,-0.15699 3.54788,-0.15699 3.3281,0 9.26217,0.15699 10.42387,0.15699 0.53375,0 0.62794,-0.12559 0.87912,-0.59655 0.25118,-0.40816 1.03611,-2.95134 1.03611,-3.79906 0,-0.87912 -0.25118,-1.47567 -0.56515,-1.47567 -0.28258,0 -0.69074,0.25118 -0.84773,0.59655 -0.91051,1.91523 -1.31868,3.79906 -3.73626,3.79906 h -4.20723 c -0.97331,0 -1.38147,-0.34537 -1.38147,-1.25589 z"
           style="font-style:normal;font-variant:normal;font-weight:normal;font-stretch:normal;font-size:31.3972px;font-family:'EB Garamond';-inkscape-font-specification:'EB Garamond';text-align:center;text-anchor:middle;fill:#336666;fill-opacity:1;stroke-width:0.264583"
           id="path878" />
        <path
           d="m 158.19447,207.34709 c -1.0675,0 -2.35479,0.15698 -3.45369,0.15698 -1.1303,0 -2.2606,-0.15698 -3.48509,-0.15698 -0.47096,0 -1.0989,0.18838 -1.0989,0.56515 0,0.28257 0.21978,0.43956 0.50235,0.53375 1.78965,0.50235 2.57458,0.53375 2.57458,2.32339 v 11.45998 c 0,1.1617 -0.40817,1.78964 -1.47567,2.2606 -0.69074,0.31397 -1.72685,0.47096 -1.72685,0.94191 0,0.31398 0.69074,0.50236 1.03611,0.53376 0.21978,0 2.07221,-0.18839 3.54788,-0.18839 1.50707,0 3.57928,0.18839 3.79906,0.18839 0.34537,-0.0314 1.00471,-0.21978 1.00471,-0.53376 0,-0.47095 -1.0361,-0.62794 -1.72684,-0.94191 -1.06751,-0.47096 -1.47567,-1.0989 -1.47567,-2.2606 v -11.45998 c 0,-1.78964 0.81633,-1.82104 2.60597,-2.32339 0.28257,-0.0942 0.47095,-0.25118 0.47095,-0.53375 0,-0.37677 -0.62794,-0.56515 -1.0989,-0.56515 z"
           style="font-style:normal;font-variant:normal;font-weight:normal;font-stretch:normal;font-size:31.3972px;font-family:'EB Garamond';-inkscape-font-specification:'EB Garamond';text-align:center;text-anchor:middle;fill:#336666;fill-opacity:1;stroke-width:0.264583"
           id="path880" />
        <path
           d="m 167.33102,207.03312 c -3.07692,0 -5.5887,2.32339 -5.5887,5.27472 0,1.53847 0.72214,2.66877 1.85244,3.61068 l 4.23862,3.57928 c 0.78493,0.65934 1.25589,1.44427 1.25589,2.51178 0,1.56986 -1.1617,3.01413 -2.73156,3.01413 -1.82104,0 -3.04553,-0.91052 -3.3909,-2.04082 -0.28257,-0.94191 -0.56515,-1.47567 -1.0675,-1.47567 -0.31397,0 -0.53376,0.37677 -0.59655,0.75354 -0.0942,0.40816 -0.18838,1.72684 -0.18838,2.1664 0,0.43956 0.28257,0.59655 1.44427,1.1303 0.75353,0.34537 2.1978,0.69074 3.2967,0.69074 3.13972,0 6.31084,-2.29199 6.31084,-5.36892 0,-1.31868 -0.53375,-2.38619 -1.50706,-3.20251 l -4.42701,-3.73627 c -0.94192,-0.78493 -1.60126,-1.60126 -1.60126,-2.63737 0,-1.38147 1.22449,-2.48037 2.57457,-2.48037 0.91052,0 2.16641,0.37676 2.48038,1.13029 0.47096,1.1303 0.87912,1.44428 1.25589,1.44428 0.47096,0 0.62794,-0.43956 0.62794,-0.84773 0,-0.59655 -0.0628,-1.28728 -0.12558,-1.78964 -0.0942,-0.34537 -0.37677,-0.59655 -0.94192,-0.91052 -0.72214,-0.34537 -2.16641,-0.81632 -3.17112,-0.81632 z"
           style="font-style:normal;font-variant:normal;font-weight:normal;font-stretch:normal;font-size:31.3972px;font-family:'EB Garamond';-inkscape-font-specification:'EB Garamond';text-align:center;text-anchor:middle;fill:#336666;fill-opacity:1;stroke-width:0.264583"
           id="path882" />
      </g>
    </g>
  </g>
</svg>
