<?xml version="1.0" encoding="UTF-8" standalone="no"?>
<svg
   xmlns:dc="http://purl.org/dc/elements/1.1/"
   xmlns:cc="http://creativecommons.org/ns#"
   xmlns:rdf="http://www.w3.org/1999/02/22-rdf-syntax-ns#"
   xmlns:svg="http://www.w3.org/2000/svg"
   xmlns="http://www.w3.org/2000/svg"
   xmlns:sodipodi="http://sodipodi.sourceforge.net/DTD/sodipodi-0.dtd"
   xmlns:inkscape="http://www.inkscape.org/namespaces/inkscape"
   width="19.814827mm"
   height="19.814827mm"
   viewBox="0 0 19.814827 19.814827"
   version="1.1"
   id="svg8"
   inkscape:version="1.0.2 (e86c870879, 2021-01-15)"
   sodipodi:docname="rad-rad.svg">
  <defs
     id="defs2">
    <clipPath
       clipPathUnits="userSpaceOnUse"
       id="clipPath867">
      <path
         d="M 0,0 H 3375 V 3406.25 H 0 Z"
         clip-rule="evenodd"
         id="path865" />
    </clipPath>
    <clipPath
       clipPathUnits="userSpaceOnUse"
       id="clipPath881">
      <path
         d="M 0,0 H 3375 V 3375 H 0 Z"
         clip-rule="evenodd"
         id="path879" />
    </clipPath>
    <clipPath
       clipPathUnits="userSpaceOnUse"
       id="clipPath893">
      <path
         d="M 0,0 H 3375 V 3375 H 0 Z"
         clip-rule="evenodd"
         id="path891" />
    </clipPath>
  </defs>
  <sodipodi:namedview
     id="base"
     pagecolor="#ffffff"
     bordercolor="#666666"
     borderopacity="1.0"
     inkscape:pageopacity="0.0"
     inkscape:pageshadow="2"
     inkscape:zoom="5.6"
     inkscape:cx="45.586519"
     inkscape:cy="64.496961"
     inkscape:document-units="mm"
     inkscape:current-layer="layer1"
     inkscape:document-rotation="0"
     showgrid="false"
     fit-margin-top="0"
     fit-margin-left="0"
     fit-margin-right="0"
     fit-margin-bottom="0"
     inkscape:window-width="1920"
     inkscape:window-height="1062"
     inkscape:window-x="0"
     inkscape:window-y="0"
     inkscape:window-maximized="1" />
  <metadata
     id="metadata5">
    <rdf:RDF>
      <cc:Work
         rdf:about="">
        <dc:format>image/svg+xml</dc:format>
        <dc:type
           rdf:resource="http://purl.org/dc/dcmitype/StillImage" />
        <dc:title></dc:title>
      </cc:Work>
    </rdf:RDF>
  </metadata>
  <g
     inkscape:label="Layer 1"
     inkscape:groupmode="layer"
     id="layer1"
     transform="translate(39.309513,172.16814)">
    <g
       id="g887"
       transform="matrix(0.00592593,0,0,0.00592593,-39.309513,-172.16814)">
      <g
         id="g889"
         clip-path="url(#clipPath893)">
        <g
           id="g895"
           transform="scale(6.6874995)">
          <path
             d="M 250,0 C 111.92881,0 0,111.92881 0,250 0,388.0712 111.92881,500 250,500 388.0712,500 500,388.0712 500,250 500,111.92881 388.0712,0 250,0 Z"
             style="fill:#ffd603;fill-opacity:1;fill-rule:nonzero;stroke:none"
             id="path897" />
        </g>
        <g
           id="g899"
           transform="matrix(16.237783,0,0,16.190664,542.15344,595.6333)">
          <path
             d="M 71.900002,1.2999999 91.600006,41.299999 c 0.300003,0.700001 1,1.200001 1.800003,1.299999 L 137.5,49 c 1.89999,0.299999 2.7,2.700001 1.3,4 l -31.9,31.099998 c -0.6,0.5 -0.8,1.300004 -0.69999,2.099999 l 7.5,44.000003 c 0.3,1.89999 -1.7,3.39999 -3.40001,2.5 L 70.800003,111.89999 c -0.699997,-0.4 -1.5,-0.4 -2.199997,0 l -39.5,20.80001 c -1.700001,0.89999 -3.700001,-0.60001 -3.4,-2.5 l 7.499999,-44.000003 c 0.1,-0.800003 -0.1,-1.5 -0.700001,-2.099999 L 0.69999999,53 C -0.69999999,51.599998 0.1,49.299999 2,49 l 44.099998,-6.400002 c 0.8,-0.1 1.400002,-0.599998 1.8,-1.299999 l 19.7,-39.9999998 C 68.5,-0.40000081 71,-0.40000081 71.900002,1.2999992 Z"
             style="fill:#000000;fill-opacity:1;fill-rule:nonzero;stroke:none"
             id="path901" />
        </g>
        <g
           id="g903"
           transform="matrix(5.4514589,0,0,5.4356394,1308.0753,1326.03)">
          <path
             d="M 71.900002,1.2999999 91.600006,41.299999 c 0.300003,0.700001 1,1.200001 1.800003,1.299999 L 137.5,49 c 1.89999,0.299999 2.7,2.700001 1.3,4 l -31.9,31.099998 c -0.6,0.5 -0.8,1.300004 -0.69999,2.099999 l 7.5,44.000003 c 0.3,1.89999 -1.7,3.39999 -3.40001,2.5 L 70.800003,111.89999 c -0.699997,-0.4 -1.5,-0.4 -2.199997,0 l -39.5,20.80001 c -1.700001,0.89999 -3.700001,-0.60001 -3.4,-2.5 l 7.499999,-44.000003 c 0.1,-0.800003 -0.1,-1.5 -0.700001,-2.099999 L 0.69999999,53 C -0.69999999,51.599998 0.1,49.299999 2,49 l 44.099998,-6.400002 c 0.8,-0.1 1.400002,-0.599998 1.8,-1.299999 l 19.7,-39.9999998 C 68.5,-0.40000081 71,-0.40000081 71.900002,1.2999992 Z"
             style="fill:#ffd603;fill-opacity:1;fill-rule:nonzero;stroke:none"
             id="path905" />
        </g>
      </g>
    </g>
  </g>
</svg>
